<svg width="2000" height="2000" viewBox="0 0 2000 2000" fill="none" xmlns="http://www.w3.org/2000/svg">
<g id="maps 1" clip-path="url(#clip0_524_306)">
<path id="path1" d="M904.762 1095.24L1708.62 196.803C1695.34 192.693 1681.25 190.476 1666.67 190.476H142.857C64.2858 190.476 0 254.762 0 333.333V1857.14C0 1871.73 2.21715 1885.82 6.32723 1899.1L904.762 1095.24Z" fill="#0F9D58"/>
<path id="path2" d="M904.762 1095.24L100.899 1993.67C114.18 1997.78 128.272 2000 142.857 2000H1666.67C1681.25 2000 1695.34 1997.78 1708.62 1993.67L904.762 1095.24Z" fill="#4285F4"/>
<path id="path3" d="M904.762 1095.24L1803.2 1899.1C1807.31 1885.82 1809.52 1871.73 1809.52 1857.14V333.333C1809.52 318.748 1807.31 304.656 1803.2 291.375L904.762 1095.24Z" fill="#D2D2D2"/>
<path id="path4" d="M1809.52 1857.14L952.381 1000L785.714 1142.86L1642.86 2000H1666.67C1745.24 2000 1809.52 1935.71 1809.52 1857.14Z" fill="#F1F1F1"/>
<path id="path5" d="M1666.67 190.476L0 1857.14C0 1935.71 64.2858 2000 142.857 2000H166.667L1809.52 357.143V333.333C1809.52 254.762 1745.24 190.476 1666.67 190.476Z" fill="#FFDE48"/>
<path id="path6" d="M1666.67 190.476H142.857C64.2858 190.476 0 254.762 0 333.333V345.238C0 266.667 64.2858 202.381 142.857 202.381H1666.67C1745.24 202.381 1809.52 266.667 1809.52 345.238V333.333C1809.52 254.762 1745.24 190.476 1666.67 190.476Z" fill="white" fill-opacity="0.2"/>
<path id="path7" d="M1666.67 1988.1H142.857C64.2858 1988.1 0 1923.81 0 1845.24V1857.14C0 1935.71 64.2858 2000 142.857 2000H1666.67C1745.24 2000 1809.52 1935.71 1809.52 1857.14V1845.24C1809.52 1923.81 1745.24 1988.1 1666.67 1988.1Z" fill="#263238" fill-opacity="0.1"/>
<path id="path8" d="M404.762 547.619V649.047H545.714C534.524 709.285 481.667 753.095 404.762 753.095C319.286 753.095 249.762 680.714 249.762 595.476C249.762 510.238 319.286 437.857 404.762 437.857C443.333 437.857 477.619 451.191 505 476.905L580 401.905C534.524 359.286 475.477 333.333 404.762 333.333C260 333.333 142.857 450.476 142.857 595.238C142.857 740 260 857.143 404.762 857.143C555.952 857.143 656.191 750.714 656.191 601.191C656.191 582.619 654.524 564.762 651.429 547.619L404.762 547.619Z" fill="#EEEEEE"/>
<g id="Clip path group">
<mask id="mask0_524_306" style="mask-type:luminance" maskUnits="userSpaceOnUse" x="0" y="0" width="2000" height="2000">
<g id="c">
<path id="use1" d="M1523.81 0C1368.1 0 1229.76 74.7621 1142.86 190.476H142.857C64.2858 190.476 0 254.762 0 333.333V1857.14C0 1935.71 64.2858 2000 142.857 2000H1666.67C1745.24 2000 1809.52 1935.71 1809.52 1857.14V924.524C1909.52 778.333 2000 646.667 2000 476.191C2000 213.095 1786.9 0 1523.81 0Z" fill="white"/>
</g>
</mask>
<g mask="url(#mask0_524_306)">
<g id="use8" opacity="0.25" filter="url(#filter0_f_524_306)">
<path d="M1523.81 0C1260.71 0 1047.62 213.095 1047.62 476.191C1047.62 835 1448.33 1021.9 1495.71 1534.05C1497.14 1548.33 1509.29 1559.52 1523.81 1559.52C1538.33 1559.52 1550.71 1548.33 1551.9 1534.05C1599.29 1021.9 2000 835 2000 476.191C2000 213.095 1786.91 0 1523.81 0Z" fill="#DB4437"/>
</g>
</g>
</g>
<path id="use9" d="M1523.81 0C1260.71 0 1047.62 213.095 1047.62 476.191C1047.62 835 1448.33 1021.9 1495.71 1534.05C1497.14 1548.33 1509.29 1559.52 1523.81 1559.52C1538.33 1559.52 1550.71 1548.33 1551.9 1534.05C1599.29 1021.9 2000 835 2000 476.191C2000 213.095 1786.91 0 1523.81 0Z" fill="#DB4437"/>
<path id="circle9" d="M1523.81 642.857C1615.86 642.857 1690.48 568.238 1690.48 476.191C1690.48 384.143 1615.86 309.524 1523.81 309.524C1431.76 309.524 1357.14 384.143 1357.14 476.191C1357.14 568.238 1431.76 642.857 1523.81 642.857Z" fill="#7B231E"/>
<path id="path9" d="M1523.81 11.9047C1784.52 11.9047 1996.19 221.428 1999.76 481.19C1999.76 479.524 2000 477.857 2000 476.191C2000 213.095 1786.9 0 1523.81 0C1260.71 0 1047.62 213.095 1047.62 476.191C1047.62 477.857 1047.86 479.524 1047.86 481.19C1051.43 221.429 1263.1 11.9047 1523.81 11.9047Z" fill="white" fill-opacity="0.2"/>
<path id="path10" d="M1551.9 1522.14C1550.71 1536.43 1538.33 1547.62 1523.81 1547.62C1509.29 1547.62 1496.9 1536.43 1495.71 1522.14C1448.81 1012.38 1051.67 824.762 1047.86 469.286C1047.86 471.667 1047.62 473.81 1047.62 476.19C1047.62 835 1448.33 1021.9 1495.71 1534.05C1497.14 1548.33 1509.29 1559.52 1523.81 1559.52C1538.33 1559.52 1550.71 1548.33 1551.9 1534.05C1599.29 1021.9 2000 835 2000 476.19C2000 473.81 1999.76 471.667 1999.76 469.286C1995.95 824.762 1599.05 1012.62 1551.9 1522.14Z" fill="#3E2723" fill-opacity="0.2"/>
<path id="path11" d="M1523.81 0C1368.1 0 1229.76 74.7621 1142.86 190.476H142.857C64.2858 190.476 0 254.762 0 333.333V1857.14C0 1935.71 64.2858 2000 142.857 2000H1666.67C1745.24 2000 1809.52 1935.71 1809.52 1857.14V924.524C1909.52 778.333 2000 646.667 2000 476.191C2000 213.095 1786.9 0 1523.81 0Z" fill="url(#paint0_radial_524_306)"/>
<path id="rect12" d="M662.208 327.135H118.216V859.657H662.208V327.135Z" fill="#1AA564"/>
</g>
<defs>
<filter id="filter0_f_524_306" x="-152.381" y="-1200" width="3352.38" height="3959.52" filterUnits="userSpaceOnUse" color-interpolation-filters="sRGB">
<feFlood flood-opacity="0" result="BackgroundImageFix"/>
<feBlend mode="normal" in="SourceGraphic" in2="BackgroundImageFix" result="shape"/>
<feGaussianBlur stdDeviation="600" result="effect1_foregroundBlur_524_306"/>
</filter>
<radialGradient id="paint0_radial_524_306" cx="0" cy="0" r="1" gradientUnits="userSpaceOnUse" gradientTransform="translate(49.6429 229.905) scale(2439.19)">
<stop stop-color="white" stop-opacity="0.1"/>
<stop offset="1" stop-color="white" stop-opacity="0"/>
</radialGradient>
<clipPath id="clip0_524_306">
<rect width="2000" height="2000" fill="white"/>
</clipPath>
</defs>
</svg>
